<svg width="276" height="136" viewBox="0 0 276 136" fill="none" xmlns="http://www.w3.org/2000/svg">
<path d="M273.485 1.78684C273.367 0.966819 272.607 0.397498 271.787 0.515223L258.424 2.43368C257.604 2.5514 257.035 3.31159 257.152 4.13161C257.27 4.95163 258.03 5.52096 258.85 5.40323L270.728 3.69794L272.434 15.5762C272.551 16.3962 273.312 16.9655 274.132 16.8478C274.952 16.73 275.521 15.9698 275.403 15.1498L273.485 1.78684ZM173.143 134V135.5H173.894L174.344 134.899L173.143 134ZM0 135.5H3.09184V132.5H0L0 135.5ZM9.27551 135.5H15.4592V132.5H9.27551V135.5ZM21.6429 135.5H27.8265V132.5H21.6429V135.5ZM34.0102 135.5H40.1939V132.5H34.0102V135.5ZM46.3776 135.5H52.5612V132.5H46.3776V135.5ZM58.7449 135.5H64.9286V132.5H58.7449V135.5ZM71.1123 135.5H77.296V132.5H71.1123V135.5ZM83.4796 135.5H89.6633V132.5H83.4796V135.5ZM95.847 135.5H102.031V132.5H95.847V135.5ZM108.214 135.5H114.398V132.5H108.214V135.5ZM120.582 135.5H126.765V132.5H120.582V135.5ZM132.949 135.5H139.133V132.5H132.949V135.5ZM145.316 135.5H151.5V132.5H145.316V135.5ZM157.684 135.5H163.867V132.5H157.684V135.5ZM170.051 135.5H173.143V132.5H170.051V135.5ZM174.344 134.899L176.109 132.542L173.708 130.744L171.942 133.101L174.344 134.899ZM179.639 127.828L183.17 123.113L180.769 121.315L177.238 126.029L179.639 127.828ZM186.701 118.399L190.231 113.685L187.83 111.887L184.299 116.601L186.701 118.399ZM193.762 108.971L197.293 104.256L194.891 102.458L191.361 107.172L193.762 108.971ZM200.823 99.542L204.354 94.8277L201.952 93.0294L198.422 97.7437L200.823 99.542ZM207.884 90.1135L211.415 85.3992L209.014 83.6008L205.483 88.3151L207.884 90.1135ZM214.946 80.6849L218.476 75.9706L216.075 74.1723L212.544 78.8865L214.946 80.6849ZM222.007 71.2563L225.537 66.542L223.136 64.7437L219.606 69.458L222.007 71.2563ZM229.068 61.8277L232.599 57.1135L230.197 55.3151L226.667 60.0294L229.068 61.8277ZM236.129 52.3992L239.66 47.6849L237.259 45.8866L233.728 50.6009L236.129 52.3992ZM243.19 42.9706L246.721 38.2563L244.32 36.458L240.789 41.1723L243.19 42.9706ZM250.252 33.5421L253.782 28.8278L251.381 27.0294L247.85 31.7437L250.252 33.5421ZM257.313 24.1135L260.843 19.3992L258.442 17.6008L254.912 22.3151L257.313 24.1135ZM264.374 14.6849L267.905 9.9706L265.503 8.17227L261.973 12.8866L264.374 14.6849ZM271.435 5.25631L273.201 2.89917L270.799 1.10083L269.034 3.45797L271.435 5.25631Z" fill="#C5C5C5"/>
</svg>
