<svg width="522" height="498" viewBox="0 0 522 498" fill="none" xmlns="http://www.w3.org/2000/svg">
<path d="M150.564 0.000184651L125.189 0.208112C123.52 0.258837 121.939 0.948158 120.794 2.12511C119.648 3.30205 119.031 4.87069 119.077 6.48746V10.9509C119.128 12.5525 118.526 14.109 117.401 15.2841C116.276 16.4591 114.719 17.1582 113.066 17.2303L63.6029 17.6323C62.7747 17.6214 61.9568 17.4525 61.1961 17.135C60.4354 16.8176 59.7468 16.3579 59.1698 15.7823C58.5928 15.2068 58.1387 14.5266 57.8335 13.7808C57.5284 13.035 57.3781 12.2382 57.3913 11.4361V6.98648C57.4143 5.36753 56.7732 3.80589 55.6086 2.64425C54.4441 1.4826 52.8513 0.815849 51.1798 0.790301H42.2489L20.0363 1.03981C14.732 1.08011 9.66067 3.15581 5.93409 6.81184C2.20752 10.4679 0.129819 15.4059 0.156504 20.5432L2.86153 330.685C2.88398 333.224 3.42277 335.733 4.44712 338.07C5.47147 340.407 6.96129 342.526 8.83143 344.305C10.7016 346.084 12.9154 347.489 15.3463 348.439C17.7772 349.389 20.3776 349.866 22.9989 349.842L153.584 348.802C158.876 348.744 163.929 346.66 167.64 343.006C171.351 339.352 173.419 334.424 173.392 329.299L170.687 19.1709C170.623 14.0505 168.472 9.16224 164.703 5.5713C160.933 1.98036 155.852 -0.0221384 150.564 0.000184651Z" fill="white"/>
<path d="M150.565 0H151.238C151.918 0.00449509 152.597 0.0507918 153.27 0.138615C155.926 0.423176 158.488 1.25504 160.784 2.57828C162.489 3.52268 164.033 4.7148 165.364 6.11301C166.997 7.78642 168.306 9.73019 169.229 11.8518C170.282 14.3358 170.812 16.9984 170.789 19.6836C170.789 22.5391 170.789 25.5887 170.889 28.8046C171.132 54.5735 171.49 91.8338 171.948 137.896C172.406 183.959 172.878 238.795 173.451 299.69C173.508 307.305 173.575 315.012 173.651 322.811C173.651 324.752 173.651 326.706 173.651 328.675C173.712 330.666 173.471 332.656 172.935 334.58C172.395 336.512 171.555 338.353 170.445 340.041C169.302 341.727 167.914 343.244 166.323 344.546C163.078 347.146 159.074 348.697 154.873 348.982C150.694 349.135 146.529 349.079 142.336 349.148L116.903 349.356L64.7202 349.772L38.0421 349.994L24.5599 350.091C19.9498 350.385 15.3678 349.202 11.5214 346.723C7.69508 344.204 4.86835 340.498 3.50651 336.215C2.86327 334.092 2.56393 331.885 2.61915 329.673C2.61915 327.496 2.61915 325.32 2.61915 323.158C2.55236 314.48 2.47602 305.863 2.39015 297.306C2.23749 280.182 2.0896 263.331 1.94647 246.752C1.66023 213.609 1.37398 181.602 1.10205 151.19C0.830113 120.777 0.601116 91.7922 0.357807 64.7203C0.214684 51.1913 0.0954153 38.1289 0 25.5332V20.848C0 20.0717 -4.37203e-07 19.2816 0.100186 18.5054C0.200372 17.7291 0.286246 16.9529 0.486618 16.1905C1.17374 13.1745 2.58599 10.3582 4.60856 7.97048C6.56876 5.66074 9.04995 3.81734 11.8612 2.58213C14.6725 1.34692 17.7388 0.752828 20.8244 0.845564L38.2281 0.70695H46.6008H50.7084C52.1008 0.624137 53.4829 0.984344 54.6443 1.73271C55.7811 2.48573 56.6428 3.56774 57.106 4.82388C57.5001 6.0562 57.6506 7.34947 57.5497 8.63584C57.5497 9.25962 57.5497 9.89726 57.5497 10.521C57.542 11.1367 57.5706 11.7522 57.6356 12.3646C57.804 13.5577 58.3317 14.6763 59.1527 15.5805C59.9551 16.4781 61.0252 17.1126 62.2155 17.3964C62.8072 17.5233 63.4135 17.5745 64.0189 17.5489H65.8365H72.9927L99.313 17.3687L110.92 17.2855C111.836 17.2855 112.781 17.2855 113.64 17.2855C114.512 17.1802 115.348 16.8864 116.087 16.4261C116.792 15.9814 117.399 15.4057 117.873 14.7324C118.348 14.0591 118.679 13.3014 118.849 12.5032C118.978 11.7291 119.022 10.9437 118.978 10.1606C118.978 9.38437 118.978 8.60812 118.978 7.84573C118.931 7.04512 118.964 6.24194 119.078 5.44765C119.193 4.7227 119.44 4.02334 119.808 3.38226C120.496 2.12916 121.615 1.14848 122.971 0.609913C124.247 0.199191 125.597 0.0481777 126.936 0.166339L139.888 0.0831721H147.846H150.565H147.846L139.888 0.166339L126.936 0.291094C125.621 0.189251 124.298 0.339993 123.043 0.734668C121.731 1.26024 120.648 2.21079 119.98 3.42384C119.63 4.05527 119.393 4.73954 119.279 5.44765C119.177 6.18263 119.149 6.92526 119.193 7.66552C119.193 8.42791 119.193 9.1903 119.193 9.98042C119.235 10.7819 119.192 11.5855 119.064 12.3785C118.89 13.2061 118.548 13.9917 118.056 14.6892C117.565 15.3867 116.934 15.982 116.201 16.44C115.437 16.9179 114.571 17.2213 113.668 17.3271C112.752 17.4242 111.851 17.3271 110.935 17.3271L99.3273 17.4242L72.9927 17.6598H65.8365H63.9759C63.3461 17.6864 62.7154 17.6304 62.101 17.4935C60.8393 17.2059 59.7028 16.5416 58.8521 15.5944C58.0203 14.6871 57.4652 13.5737 57.2492 12.3785C57.178 11.7526 57.1493 11.1228 57.1633 10.4933C57.1633 9.86953 57.1633 9.24575 57.1633 8.60811C57.2602 7.35928 57.1145 6.10392 56.7339 4.90704C56.2974 3.70151 55.4751 2.66231 54.3867 1.94064C53.2837 1.23221 51.9722 0.891547 50.6512 0.97032H46.5436L38.1709 1.03963L20.7671 1.28914C17.7808 1.2247 14.8159 1.79238 12.0796 2.95254C9.31201 4.18428 6.86619 6.00354 4.92343 8.27544C2.94324 10.6207 1.56063 13.3844 0.88736 16.3429C0.686988 17.0776 0.644054 17.84 0.515243 18.6024C0.386433 19.3648 0.429368 20.1272 0.429368 20.9034V25.5887C0.543866 38.1659 0.663135 51.2282 0.787175 64.7757C1.0448 91.8615 1.30242 120.805 1.58866 151.259C1.87491 181.713 2.14684 213.636 2.4474 246.808C2.60006 263.386 2.75273 280.237 2.90539 297.361C2.97218 305.928 3.04852 314.55 3.13439 323.227C3.13439 325.39 3.13439 327.566 3.13439 329.742C3.08674 331.898 3.38119 334.049 4.00744 336.118C5.33143 340.284 8.07655 343.891 11.7933 346.348C15.5459 348.757 20.0107 349.906 24.5026 349.62L37.9848 349.509L64.6772 349.301L116.86 348.885L142.278 348.691C146.472 348.622 150.68 348.691 154.802 348.525C158.902 348.258 162.812 346.75 165.98 344.214C167.529 342.95 168.879 341.475 169.987 339.833C171.078 338.192 171.898 336.396 172.42 334.511C172.939 332.631 173.175 330.689 173.121 328.744C173.121 326.79 173.121 324.835 173.121 322.881C173.064 315.09 172.997 307.388 172.921 299.773C172.406 238.865 171.934 184.028 171.49 137.965C171.046 91.9031 170.817 54.6428 170.602 28.8739C170.602 25.658 170.602 22.6084 170.531 19.7529C170.567 17.0886 170.051 14.4444 169.014 11.9765C168.1 9.87563 166.811 7.94709 165.207 6.27935C163.913 4.86257 162.402 3.647 160.727 2.67531C158.449 1.33994 155.901 0.493793 153.256 0.194063C152.588 0.0925311 151.914 0.0369466 151.238 0.027724L150.565 0Z" fill="#263238"/>
<path d="M154.703 31.2853C154.703 31.3685 151.411 31.4933 147.346 31.5487C143.281 31.6041 139.975 31.5487 139.961 31.5487C139.947 31.5487 143.267 31.3546 147.332 31.2853C151.397 31.216 154.703 31.2022 154.703 31.2853Z" fill="#263238"/>
<path d="M154.773 34.9308C154.773 35.014 151.467 35.1388 147.402 35.2081C143.337 35.2774 140.031 35.2081 140.031 35.2081C140.031 35.2081 143.323 35.0001 147.402 34.9308C151.481 34.8615 154.773 34.8477 154.773 34.9308Z" fill="#263238"/>
<path d="M154.832 38.591C154.832 38.6742 151.54 38.7989 147.475 38.8544C143.41 38.9098 140.104 38.8544 140.09 38.8544C140.076 38.8544 143.396 38.6603 147.461 38.591C151.525 38.5217 154.832 38.5078 154.832 38.591Z" fill="#263238"/>
<path d="M20.753 43.9003H21.0535H21.9123L25.0467 43.8033L24.9608 43.8865C24.9608 43.2072 24.9608 42.5003 24.9608 41.6824C24.9608 41.2666 24.9608 40.8785 24.9608 40.4072C25.0095 40.1618 25.1366 39.9375 25.324 39.7659C25.5115 39.5942 25.7499 39.484 26.0056 39.4507C26.5208 39.4507 26.9645 39.4507 27.5084 39.4507C27.7992 39.4879 28.066 39.6268 28.2584 39.8413C28.4509 40.0558 28.5557 40.331 28.5532 40.6151C28.5532 41.6547 28.5532 42.7221 28.5532 43.8449L28.3957 43.7063H32.3746L32.2171 43.8449C32.2171 42.3062 32.2171 40.6983 32.1313 39.0626C32.1313 38.6467 32.1313 38.2447 32.1313 37.8428C32.1089 37.6614 32.0461 37.4869 31.9473 37.3313C31.8484 37.1757 31.7159 37.0428 31.5588 36.9417L29.8127 35.2922L28.1238 33.712C27.8519 33.4486 27.5656 33.1991 27.308 32.9357C27.0504 32.6723 26.7928 32.409 26.4779 32.3535C26.3212 32.3137 26.1571 32.3092 25.9983 32.3405C25.8395 32.3717 25.6902 32.4378 25.5619 32.5337C25.3329 32.7278 25.0753 33.005 24.832 33.2407C24.3454 33.7258 23.8731 34.1833 23.4008 34.6268C22.4991 35.5417 21.5831 36.3734 20.9104 37.1497C20.7227 37.5876 20.6585 38.066 20.7244 38.5358V39.922C20.7244 40.7537 20.7244 41.4745 20.7244 42.0983V43.4845C20.7244 43.8033 20.7244 43.9835 20.7244 43.9835C20.7041 43.8316 20.7041 43.6779 20.7244 43.5261C20.7244 43.1472 20.7244 42.6851 20.7244 42.1399C20.7244 41.5022 20.7244 40.7537 20.7244 39.9359C20.7244 39.5062 20.7244 39.0349 20.7244 38.5497C20.7244 38.314 20.7244 38.0507 20.7244 37.8012C20.7094 37.5182 20.7843 37.2376 20.939 36.9972C21.6547 36.11 22.5277 35.3338 23.4294 34.405L24.8606 33.0189C25.1182 32.7694 25.3186 32.5199 25.6192 32.2703C25.7822 32.1504 25.9714 32.068 26.1723 32.0296C26.3732 31.9911 26.5805 31.9976 26.7785 32.0486C27.1546 32.1748 27.4868 32.4005 27.7374 32.7001L28.5532 33.4625L30.056 34.9457L31.8021 36.5813C31.9674 36.7171 32.1162 36.8705 32.2458 37.0388C32.3864 37.2286 32.4615 37.4566 32.4604 37.6903C32.4604 38.0923 32.4604 38.5081 32.4604 38.9101C32.4604 40.5596 32.4604 42.1537 32.5463 43.7063V43.8587H32.3889H28.4244H28.2813V43.7201C28.2813 42.6112 28.2813 41.53 28.2813 40.5042C28.2874 40.2814 28.2093 40.0641 28.0618 39.8931C27.9142 39.7221 27.7072 39.6092 27.4798 39.5755C27.0218 39.5755 26.4779 39.5755 26.0485 39.5755C25.8414 39.5965 25.6469 39.6823 25.4946 39.8198C25.3423 39.9574 25.2403 40.1392 25.2041 40.3379C25.2041 40.726 25.2041 41.1696 25.2041 41.5577C25.2041 42.3617 25.2041 43.0963 25.2041 43.7756V43.8587H21.0249C20.8389 43.9142 20.7387 43.9142 20.753 43.9003Z" fill="#263238"/>
<path d="M143.553 62.1414L25.6961 63.1575C19.7996 63.2083 15.0621 67.8791 15.1146 73.5899L15.1499 77.4295C15.2023 83.1403 20.0249 87.7287 25.9214 87.6778L143.778 86.6618C149.675 86.6109 154.412 81.9402 154.36 76.2293L154.325 72.3898C154.272 66.6789 149.45 62.0906 143.553 62.1414Z" fill="#F5F5F5"/>
<path d="M143.755 86.6921L144.556 86.609C145.333 86.534 146.1 86.3854 146.846 86.1654C148.053 85.7794 149.181 85.1931 150.181 84.4327C151.549 83.3913 152.63 82.0391 153.33 80.496C153.746 79.5894 154.016 78.6264 154.131 77.6405C154.228 76.5387 154.252 75.4322 154.203 74.3275C154.234 73.1275 154.167 71.927 154.002 70.7373C153.772 69.4659 153.285 68.2508 152.571 67.161C151.794 65.9476 150.764 64.9052 149.546 64.1007C148.329 63.2961 146.951 62.7473 145.501 62.4896C143.895 62.3165 142.277 62.2702 140.663 62.351H135.525L25.7642 63.4183C23.1495 63.4392 20.6384 64.4115 18.7294 66.1422C16.8205 67.873 15.6532 70.2356 15.4594 72.7611C15.4594 73.981 15.4594 75.2701 15.4594 76.5176C15.4132 77.7468 15.5579 78.9757 15.8887 80.1633C16.5766 82.4883 18.0993 84.4989 20.1824 85.8327C21.2129 86.4975 22.3637 86.9678 23.5744 87.2189C24.7818 87.4375 26.0117 87.5166 27.2384 87.4545H34.6092L48.9215 87.3298L98.3132 86.9694L131.604 86.7614H140.663H143.01C143.54 86.7614 143.812 86.7614 143.812 86.7614H143.01H140.663L131.604 86.8862L98.3132 87.2466L48.9358 87.7318L34.6235 87.8565H27.2527C25.9875 87.9171 24.7193 87.8333 23.4742 87.607C22.2138 87.3581 21.0109 86.8884 19.9248 86.2208C17.7069 84.8454 16.0718 82.7453 15.3162 80.3019C14.9644 79.0706 14.81 77.7943 14.8582 76.5176C14.8582 75.2562 14.8582 74.0225 14.8582 72.7195C15.0627 70.0713 16.2869 67.5942 18.2883 65.779C20.2897 63.9639 22.9222 62.9432 25.664 62.9193L135.525 62.046H140.663C142.301 61.9643 143.943 62.0153 145.572 62.1985C147.063 62.4718 148.478 63.0432 149.727 63.8762C150.977 64.7092 152.033 65.7855 152.829 67.0362C153.535 68.1698 154.021 69.4197 154.26 70.7235C154.422 71.9273 154.479 73.1421 154.432 74.3552C154.476 75.4694 154.447 76.5852 154.346 77.6959C154.219 78.7038 153.929 79.686 153.487 80.6069C152.775 82.1698 151.668 83.5334 150.267 84.5713C149.247 85.3301 148.1 85.9117 146.875 86.2901C146.113 86.5005 145.332 86.6352 144.542 86.6921H143.755Z" fill="#263238"/>
<path d="M145.782 73.813C145.782 73.813 145.782 73.4249 145.539 72.7595C145.244 71.8301 144.647 71.018 143.836 70.4446C143.194 70.0023 142.438 69.7398 141.652 69.6857C140.866 69.6317 140.079 69.7883 139.379 70.1383C138.679 70.4883 138.091 71.0182 137.681 71.6701C137.271 72.3219 137.054 73.0705 137.054 73.8338C137.054 74.5971 137.271 75.3457 137.681 75.9975C138.091 76.6494 138.679 77.1793 139.379 77.5294C140.079 77.8794 140.866 78.0359 141.652 77.9819C142.438 77.9279 143.194 77.6653 143.836 77.223C144.641 76.641 145.225 75.8173 145.496 74.8804C145.682 74.215 145.682 73.813 145.725 73.813C145.768 73.813 145.725 73.9101 145.725 74.1041C145.762 74.3756 145.762 74.6505 145.725 74.922C145.521 75.9452 144.954 76.8672 144.122 77.528C143.497 78.0159 142.754 78.3418 141.962 78.4752C141.171 78.6085 140.358 78.5449 139.599 78.2904C138.661 77.9764 137.847 77.389 137.267 76.6087C136.687 75.8285 136.371 74.8937 136.362 73.9325C136.352 72.9713 136.65 72.0308 137.214 71.24C137.779 70.4493 138.582 69.8471 139.514 69.5159C140.266 69.2481 141.077 69.1686 141.87 69.2849C142.663 69.4012 143.413 69.7095 144.051 70.1813C144.904 70.8113 145.498 71.7157 145.725 72.7318C145.792 73.0044 145.825 73.2835 145.825 73.5635C145.811 73.716 145.811 73.813 145.782 73.813Z" fill="#263238"/>
<path d="M148.391 81.451C147.522 80.9312 146.752 80.27 146.115 79.4965C145.353 78.839 144.718 78.0551 144.24 77.1816C145.101 77.7118 145.866 78.377 146.502 79.15C147.255 79.814 147.892 80.591 148.391 81.451Z" fill="#263238"/>
<path d="M33.8764 72.9123H31.4004V72.2886H37.1253V72.9262H34.635V79.1501H33.8764V72.9123Z" fill="#E0E0E0"/>
<path d="M42.253 76.6977H37.8162C37.8529 77.203 38.095 77.6735 38.4894 78.0062C38.8838 78.3388 39.3983 78.5063 39.9201 78.472C40.2253 78.4762 40.5278 78.4164 40.807 78.2968C41.0861 78.1772 41.3353 78.0005 41.5374 77.7789L41.9524 78.2225C41.5653 78.5891 41.0787 78.8418 40.5492 78.9513C40.0198 79.0609 39.4691 79.0227 38.9611 78.8413C38.4531 78.6599 38.0086 78.3426 37.6793 77.9264C37.35 77.5102 37.1493 77.0121 37.1005 76.4898C37.079 76.1502 37.1297 75.8099 37.2497 75.4901C37.3696 75.1703 37.5562 74.8778 37.7978 74.6308C38.0394 74.3838 38.3309 74.1876 38.6541 74.0543C38.9774 73.921 39.3255 73.8535 39.6768 73.8561C40.0259 73.8459 40.3735 73.9062 40.6973 74.0331C41.0211 74.16 41.3141 74.3507 41.5577 74.5932C41.8014 74.8357 41.9902 75.1246 42.1124 75.4415C42.2345 75.7585 42.2873 76.0966 42.2673 76.4344C42.2673 76.5453 42.253 76.6146 42.253 76.6977ZM37.8162 76.2126H41.5803C41.5392 75.7566 41.3231 75.3321 40.9747 75.0228C40.6263 74.7135 40.1708 74.5419 39.6982 74.5419C39.2256 74.5419 38.7702 74.7135 38.4218 75.0228C38.0733 75.3321 37.8573 75.7566 37.8162 76.2126Z" fill="#E0E0E0"/>
<path d="M46.9845 79.0123L45.267 76.8776L43.5925 79.04H42.791L44.8663 76.3786L42.8483 73.8973H43.6498L45.267 75.8934L46.8414 73.8696H47.6286L45.6535 76.3786L47.8003 79.0123H46.9845Z" fill="#E0E0E0"/>
<path d="M51.7818 78.6656C51.4651 78.9093 51.0698 79.037 50.6655 79.026C50.4569 79.045 50.2467 79.0194 50.0495 78.9511C49.8523 78.8828 49.6729 78.7734 49.5242 78.6306C49.3754 78.4878 49.2608 78.3152 49.1884 78.1248C49.1161 77.9345 49.0877 77.7311 49.1054 77.529V74.4239H48.1465V73.8279H49.0911V72.7051H49.821V73.8279H51.4383V74.4239H49.7924V77.4874C49.7924 78.0973 50.1216 78.43 50.7084 78.4161C50.9956 78.4271 51.2766 78.3331 51.4956 78.1527L51.7818 78.6656Z" fill="#E0E0E0"/>
<path d="M51.7704 107.842L21.3008 108.105L21.572 137.615L52.0417 137.353L51.7704 107.842Z" fill="#3861FB"/>
<path d="M110.391 110.325C110.391 110.464 100.215 110.658 87.6491 110.769C75.0829 110.88 64.8926 110.852 64.8926 110.769C64.8926 110.686 75.0686 110.436 87.6348 110.325C100.201 110.214 110.391 110.187 110.391 110.325Z" fill="#FF725E"/>
<path d="M146.77 119.114C146.77 119.252 128.45 119.529 105.865 119.724C83.2807 119.918 64.9609 119.959 64.9609 119.821C64.9609 119.682 83.2664 119.405 105.865 119.211C128.465 119.017 146.77 118.92 146.77 119.114Z" fill="#263238"/>
<path d="M145.87 125.531C145.87 125.67 127.765 125.933 105.452 126.127C83.1389 126.321 65.0195 126.363 65.0195 126.224C65.0195 126.086 83.1103 125.822 105.437 125.628C127.765 125.434 145.87 125.393 145.87 125.531Z" fill="#263238"/>
<path d="M112.81 131.978C112.81 132.117 102.133 132.324 88.951 132.435C75.7694 132.546 65.0781 132.519 65.0781 132.435C65.0781 132.352 75.7694 132.103 88.951 131.992C102.133 131.881 112.81 131.839 112.81 131.978Z" fill="#263238"/>
<path d="M52.4865 156.671L22.0156 156.966L22.3203 186.477L52.7912 186.182L52.4865 156.671Z" fill="#FF725E"/>
<path d="M110.847 159.493C110.847 159.631 100.657 159.839 88.0905 159.936C75.5243 160.033 65.334 160.019 65.334 159.936C65.334 159.853 75.51 159.603 88.0905 159.493C100.671 159.382 110.847 159.312 110.847 159.493Z" fill="#FF725E"/>
<path d="M147.215 168.225C147.215 168.364 128.909 168.641 106.324 168.835C83.7396 169.029 65.4199 169.071 65.4199 168.932C65.4199 168.794 83.7253 168.516 106.31 168.336C128.895 168.156 147.215 168.087 147.215 168.225Z" fill="#263238"/>
<path d="M146.316 174.699C146.316 174.837 128.226 175.101 105.898 175.295C83.5712 175.489 65.4805 175.531 65.4805 175.392C65.4805 175.253 83.5712 174.99 105.898 174.796C128.226 174.602 146.316 174.56 146.316 174.699Z" fill="#263238"/>
<path d="M113.252 181.145C113.252 181.283 102.575 181.491 89.3937 181.602C76.2121 181.713 65.5352 181.699 65.5352 181.602C65.5352 181.505 76.2121 181.256 89.3937 181.145C102.575 181.034 113.252 181.006 113.252 181.145Z" fill="#263238"/>
<path d="M52.6689 205.986L22.1992 206.249L22.4704 235.759L52.9401 235.496L52.6689 205.986Z" fill="#3861FB"/>
<path d="M111.294 208.66C111.294 208.798 101.104 209.006 88.5378 209.103C75.9716 209.2 65.7812 209.187 65.7812 209.103C65.7812 209.02 75.9716 208.771 88.5378 208.66C101.104 208.549 111.294 208.521 111.294 208.66Z" fill="#FF725E"/>
<path d="M147.66 217.407C147.66 217.545 129.355 217.809 106.77 218.003C84.185 218.197 65.8652 218.239 65.8652 218.1C65.8652 217.961 84.1707 217.698 106.77 217.504C129.369 217.31 147.66 217.268 147.66 217.407Z" fill="#263238"/>
<path d="M146.758 223.867C146.758 224.005 128.667 224.269 106.34 224.463C84.0126 224.657 65.9219 224.698 65.9219 224.56C65.9219 224.421 84.0126 224.158 106.34 223.964C128.667 223.77 146.758 223.728 146.758 223.867Z" fill="#263238"/>
<path d="M113.71 230.313C113.71 230.451 103.019 230.659 89.8514 230.77C76.6841 230.881 65.9785 230.867 65.9785 230.77C65.9785 230.673 76.6555 230.423 89.8371 230.313C103.019 230.202 113.71 230.174 113.71 230.313Z" fill="#263238"/>
<path d="M53.1239 255.147L22.6543 255.41L22.9255 284.921L53.3952 284.658L53.1239 255.147Z" fill="#FF725E"/>
<path d="M111.738 257.827C111.738 257.966 101.562 258.174 88.9955 258.271C76.4293 258.368 66.2246 258.354 66.2246 258.271C66.2246 258.187 76.415 257.938 88.9812 257.827C101.547 257.716 111.738 257.73 111.738 257.827Z" fill="#455A64"/>
<path d="M148.118 266.574C148.118 266.713 129.798 266.976 107.213 267.17C84.6283 267.364 66.3086 267.406 66.3086 267.267C66.3086 267.129 84.614 266.865 107.213 266.671C129.812 266.477 148.118 266.436 148.118 266.574Z" fill="#263238"/>
<path d="M147.203 272.979C147.203 273.117 129.112 273.395 106.799 273.575C84.4865 273.755 66.3672 273.81 66.3672 273.672C66.3672 273.533 84.4579 273.27 106.785 273.076C129.112 272.882 147.203 272.896 147.203 272.979Z" fill="#263238"/>
<path d="M114.155 279.48C114.155 279.618 103.478 279.826 90.2967 279.937C77.1151 280.048 66.4238 280.034 66.4238 279.937C66.4238 279.84 77.1008 279.59 90.2824 279.48C103.464 279.369 114.155 279.341 114.155 279.48Z" fill="#263238"/>
<path d="M54.0099 304.188L23.5391 304.483L23.8438 333.995L54.3146 333.7L54.0099 304.188Z" fill="#E0E0E0"/>
<path d="M112.191 306.995C112.191 307.134 102 307.342 89.4343 307.453C76.8681 307.564 66.6777 307.522 66.6777 307.384C66.6777 307.245 76.8538 307.051 89.42 306.94C101.986 306.829 112.177 306.857 112.191 306.995Z" fill="#E0E0E0"/>
<path d="M148.561 315.742C148.561 315.88 130.241 316.144 107.656 316.338C85.0717 316.532 66.752 316.573 66.752 316.435C66.752 316.296 85.0717 316.033 107.656 315.839C130.241 315.645 148.561 315.603 148.561 315.742Z" fill="#EBEBEB"/>
<path d="M147.659 322.201C147.659 322.34 129.554 322.617 107.241 322.797C84.9279 322.978 66.8229 323.033 66.8086 322.894C66.7943 322.756 84.9136 322.492 107.241 322.298C129.568 322.104 147.659 322.063 147.659 322.201Z" fill="#EBEBEB"/>
<path d="M114.599 328.648C114.599 328.786 103.922 328.994 90.7401 329.105C77.5585 329.216 66.8672 329.202 66.8672 329.105C66.8672 329.008 77.5585 328.758 90.7401 328.648C103.922 328.537 114.599 328.509 114.599 328.648Z" fill="#EBEBEB"/>
<g opacity="0.3">
<path d="M53.122 255.148L22.6523 255.411L22.9236 284.921L53.3932 284.658L53.122 255.148Z" fill="black"/>
</g>
<path d="M507.186 337.227L490.24 337.116C489.686 337.125 489.14 337.24 488.632 337.454C488.124 337.668 487.665 337.977 487.28 338.364C486.896 338.75 486.594 339.206 486.392 339.706C486.19 340.205 486.092 340.739 486.104 341.275V344.241C486.117 344.778 486.02 345.312 485.819 345.813C485.618 346.313 485.316 346.77 484.932 347.156C484.547 347.543 484.087 347.852 483.578 348.066C483.069 348.279 482.522 348.393 481.967 348.4L448.963 348.178C447.852 348.149 446.798 347.695 446.031 346.916C445.264 346.137 444.847 345.096 444.87 344.019V341.053C444.871 339.983 444.446 338.954 443.684 338.179C442.922 337.405 441.88 336.944 440.777 336.895H434.823L420.01 336.784C418.26 336.769 416.525 337.088 414.904 337.724C413.282 338.359 411.806 339.298 410.559 340.486C409.312 341.674 408.319 343.089 407.637 344.649C406.955 346.209 406.598 347.884 406.585 349.578L405.354 482.65C405.342 484.343 405.676 486.02 406.334 487.588C406.993 489.155 407.964 490.582 409.192 491.785C410.421 492.989 411.882 493.947 413.492 494.603C415.103 495.259 416.831 495.602 418.578 495.611L505.754 496.193C507.503 496.21 509.238 495.892 510.859 495.258C512.481 494.624 513.957 493.687 515.204 492.5C516.451 491.313 517.444 489.899 518.126 488.34C518.808 486.781 519.166 485.106 519.179 483.413L520.41 350.34C520.441 348.636 520.122 346.942 519.472 345.358C518.822 343.774 517.854 342.33 516.624 341.111C515.394 339.891 513.926 338.92 512.306 338.253C510.686 337.587 508.946 337.238 507.186 337.227Z" fill="white"/>
<path d="M507.184 337.228H508.615C509.994 337.381 511.34 337.736 512.608 338.281C515.06 339.358 517.12 341.123 518.524 343.348C519.927 345.572 520.609 348.153 520.48 350.757C520.366 364.217 520.194 383.665 519.994 407.701C519.893 419.719 519.779 432.888 519.65 447.026C519.593 454.096 519.526 461.401 519.45 468.942C519.45 472.698 519.45 476.524 519.349 480.392C519.451 482.352 519.302 484.316 518.906 486.241C518.388 488.189 517.407 489.992 516.043 491.509C514.672 493.039 512.959 494.248 511.034 495.043C509.074 495.815 506.964 496.16 504.851 496.055L492.099 495.972L465.807 495.806L438.614 495.626L424.674 495.529C422.341 495.529 420.008 495.529 417.632 495.432C415.238 495.261 412.934 494.471 410.963 493.144C409 491.807 407.439 489.989 406.44 487.877C405.466 485.778 405.043 483.478 405.209 481.182C405.209 476.654 405.252 472.153 405.338 467.68C405.424 458.744 405.505 449.965 405.581 441.343C405.753 424.044 405.91 407.354 406.053 391.441C406.12 383.494 406.197 375.75 406.282 368.209C406.282 364.452 406.354 360.737 406.383 357.12C406.383 355.29 406.383 353.474 406.383 351.672C406.296 349.883 406.44 348.09 406.812 346.335C407.258 344.632 408.057 343.034 409.159 341.638C410.261 340.241 411.644 339.076 413.224 338.212C414.753 337.366 416.442 336.824 418.19 336.618C419.936 336.438 421.64 336.549 423.343 336.535L433.29 336.604H438.113H440.489C441.291 336.578 442.084 336.77 442.779 337.159C443.45 337.558 444.001 338.122 444.376 338.794C444.75 339.466 444.935 340.221 444.911 340.984C444.911 341.719 444.911 342.454 444.911 343.175C444.841 343.88 444.919 344.592 445.14 345.268C445.37 345.924 445.774 346.51 446.311 346.968C446.849 347.425 447.501 347.738 448.203 347.874C449.634 348.012 451.066 347.874 452.497 347.971L468.24 348.082L481.98 348.193C482.983 348.157 483.938 347.771 484.67 347.106C485.401 346.441 485.859 345.542 485.959 344.575C485.959 343.66 485.959 342.731 485.959 341.802C485.891 340.929 486.049 340.052 486.417 339.252C486.787 338.531 487.366 337.93 488.082 337.521C488.799 337.113 489.622 336.915 490.453 336.951H494.747H501.502L507.084 337.02H501.502H494.747H490.453C489.642 336.977 488.835 337.169 488.137 337.571C487.439 337.974 486.88 338.568 486.531 339.279C486.165 340.061 486.012 340.92 486.088 341.775C486.088 342.676 486.088 343.577 486.088 344.547C485.985 345.544 485.515 346.471 484.763 347.159C484.011 347.846 483.028 348.248 481.994 348.29L468.24 348.206L452.497 348.109C451.066 348.109 449.634 348.109 448.203 348.012C447.462 347.866 446.773 347.533 446.208 347.046C445.642 346.559 445.22 345.936 444.983 345.24C444.755 344.542 444.672 343.807 444.74 343.078C444.74 342.357 444.74 341.622 444.74 340.887C444.758 340.159 444.578 339.439 444.219 338.8C443.86 338.16 443.334 337.623 442.693 337.242C442.031 336.864 441.27 336.682 440.503 336.715H438.142H433.318L423.371 336.646C421.663 336.59 419.953 336.618 418.248 336.729C415.61 337.047 413.133 338.129 411.141 339.833C409.149 341.537 407.735 343.784 407.084 346.28C406.717 348.021 406.573 349.799 406.655 351.575C406.655 353.363 406.655 355.179 406.655 357.009C406.655 360.654 406.583 364.369 406.554 368.098C406.488 375.62 406.416 383.36 406.34 391.316C406.197 407.216 406.053 423.905 405.896 441.218C405.81 449.868 405.729 458.647 405.653 467.556C405.653 472.019 405.61 476.52 405.524 481.057C405.362 483.313 405.77 485.572 406.712 487.641C407.7 489.702 409.23 491.476 411.149 492.784C413.078 494.081 415.332 494.851 417.675 495.016C420.008 495.127 422.369 495.016 424.702 495.113L438.628 495.21L465.822 495.39L492.113 495.584L504.865 495.667C506.938 495.763 509.007 495.428 510.934 494.683C512.82 493.896 514.498 492.707 515.843 491.204C517.163 489.715 518.109 487.95 518.605 486.047C518.992 484.145 519.136 482.203 519.035 480.267C519.035 476.399 519.121 472.574 519.149 468.817C519.225 461.276 519.297 453.971 519.364 446.902C519.493 432.763 519.621 419.594 519.736 407.576C519.979 383.54 520.18 364.092 520.323 350.618C520.466 347.639 519.547 344.702 517.718 342.301C516.38 340.535 514.596 339.132 512.537 338.226C511.273 337.678 509.932 337.314 508.558 337.145L507.184 337.228Z" fill="#263238"/>
<path d="M509.012 375.301L416.898 375.083L416.742 437.031L508.856 437.249L509.012 375.301Z" fill="#FF725E"/>
<path d="M465.539 418.714C472.778 417.309 477.471 410.487 476.02 403.476C474.57 396.465 467.526 391.92 460.287 393.325C453.048 394.729 448.355 401.552 449.806 408.563C451.256 415.574 458.3 420.118 465.539 418.714Z" fill="white"/>
<path d="M459.612 406.023L459.626 400.187L464.836 403.112L470.046 406.037L464.822 408.948L459.598 411.845L459.612 406.023Z" fill="#FF725E"/>
<path d="M426.721 446.249V445.251C426.721 445.23 426.727 445.209 426.737 445.191C426.748 445.173 426.763 445.157 426.782 445.146C426.801 445.135 426.822 445.129 426.844 445.128C426.865 445.127 426.887 445.131 426.907 445.14L427.794 445.639L428.681 446.152C428.699 446.162 428.714 446.176 428.725 446.193C428.735 446.21 428.741 446.23 428.741 446.249C428.741 446.269 428.735 446.289 428.725 446.306C428.714 446.323 428.699 446.337 428.681 446.346L427.794 446.845L426.892 447.344C426.875 447.354 426.855 447.359 426.835 447.359C426.815 447.359 426.795 447.354 426.778 447.344C426.76 447.334 426.746 447.32 426.736 447.303C426.726 447.286 426.721 447.267 426.721 447.247V446.249Z" fill="#263238"/>
<path d="M435.091 445.542H434.319C434.302 445.542 434.286 445.545 434.271 445.552C434.256 445.558 434.243 445.568 434.232 445.58C434.221 445.591 434.213 445.605 434.208 445.62C434.203 445.635 434.202 445.651 434.204 445.667V447.053C434.208 447.084 434.223 447.112 434.246 447.133C434.27 447.153 434.301 447.164 434.333 447.164H435.091L436.279 448.329V444.447L435.091 445.542Z" fill="#263238"/>
<path d="M429.368 447.498C429.315 447.498 429.264 447.477 429.227 447.441C429.189 447.404 429.168 447.355 429.168 447.304V445.308C429.168 445.252 429.191 445.199 429.231 445.16C429.271 445.121 429.326 445.1 429.383 445.1C429.437 445.103 429.488 445.127 429.525 445.165C429.563 445.204 429.583 445.255 429.583 445.308V447.304C429.579 447.356 429.555 447.406 429.515 447.442C429.475 447.478 429.423 447.498 429.368 447.498Z" fill="#263238"/>
<path d="M436.77 445.113V447.539C437.019 447.437 437.234 447.268 437.389 447.052C437.543 446.836 437.631 446.582 437.643 446.319C437.642 446.056 437.557 445.799 437.401 445.584C437.245 445.368 437.025 445.204 436.77 445.113Z" fill="#263238"/>
<path d="M436.766 444.185V444.697C437.13 444.797 437.451 445.01 437.678 445.303C437.905 445.596 438.028 445.953 438.026 446.319C438.023 446.688 437.897 447.046 437.668 447.341C437.439 447.636 437.117 447.851 436.752 447.955V448.454C437.262 448.356 437.721 448.09 438.051 447.7C438.381 447.311 438.562 446.823 438.562 446.319C438.562 445.816 438.381 445.327 438.051 444.938C437.721 444.549 437.262 444.283 436.752 444.185H436.766Z" fill="#263238"/>
<path d="M443.225 445.542V447.885H442.882V445.834H442.338V445.542H443.225Z" fill="#263238"/>
<path d="M443.683 446.318C443.683 446.288 443.689 446.258 443.701 446.23C443.714 446.202 443.732 446.177 443.755 446.156C443.778 446.136 443.805 446.12 443.834 446.109C443.863 446.099 443.895 446.095 443.926 446.097C443.987 446.097 444.045 446.12 444.088 446.162C444.131 446.203 444.155 446.26 444.155 446.318C444.157 446.349 444.152 446.379 444.142 446.408C444.131 446.436 444.115 446.462 444.093 446.484C444.072 446.506 444.046 446.524 444.017 446.536C443.988 446.548 443.957 446.554 443.926 446.554C443.894 446.554 443.862 446.548 443.833 446.536C443.803 446.524 443.777 446.507 443.754 446.485C443.731 446.463 443.713 446.437 443.701 446.409C443.689 446.38 443.683 446.349 443.683 446.318ZM443.683 447.705C443.683 447.674 443.689 447.644 443.701 447.616C443.714 447.588 443.732 447.563 443.755 447.543C443.778 447.522 443.805 447.506 443.834 447.495C443.863 447.485 443.895 447.481 443.926 447.483C443.987 447.483 444.045 447.506 444.088 447.548C444.131 447.589 444.155 447.646 444.155 447.705C444.155 447.765 444.131 447.823 444.089 447.866C444.046 447.91 443.988 447.937 443.926 447.94C443.887 447.942 443.848 447.934 443.813 447.919C443.777 447.903 443.747 447.879 443.723 447.849C443.699 447.819 443.683 447.784 443.676 447.747C443.669 447.71 443.671 447.671 443.683 447.635V447.705Z" fill="#263238"/>
<path d="M444.539 446.721C444.539 445.944 444.954 445.515 445.527 445.515C446.099 445.515 446.514 445.958 446.514 446.721C446.514 447.483 446.085 447.927 445.527 447.927C444.968 447.927 444.539 447.483 444.539 446.721ZM446.171 446.721C446.171 446.125 445.913 445.82 445.527 445.82C445.14 445.82 444.883 446.111 444.883 446.721C444.883 447.331 445.14 447.622 445.527 447.622C445.913 447.622 446.171 447.317 446.171 446.721Z" fill="#263238"/>
<path d="M447.589 445.542V447.899H447.245V445.834H446.701V445.542H447.589Z" fill="#263238"/>
<path d="M449.937 445.072H450.237L449.092 448.232H448.777L449.937 445.072Z" fill="#263238"/>
<path d="M453.11 447.248C453.11 447.678 452.738 447.941 452.137 447.941C451.536 447.941 451.178 447.664 451.178 447.248C451.175 447.121 451.216 446.997 451.294 446.894C451.371 446.791 451.481 446.716 451.607 446.68C451.506 446.636 451.42 446.563 451.362 446.472C451.303 446.381 451.274 446.274 451.278 446.167C451.278 445.779 451.622 445.529 452.151 445.529C452.681 445.529 453.024 445.779 453.024 446.167C453.029 446.276 452.999 446.385 452.937 446.477C452.876 446.569 452.786 446.64 452.681 446.68C452.808 446.714 452.919 446.789 452.997 446.892C453.075 446.995 453.115 447.12 453.11 447.248ZM452.767 447.248C452.767 446.985 452.523 446.832 452.151 446.832C451.779 446.832 451.536 446.985 451.536 447.248C451.536 447.512 451.765 447.678 452.137 447.678C452.509 447.678 452.767 447.498 452.767 447.234V447.248ZM451.622 446.195C451.622 446.43 451.808 446.569 452.151 446.569C452.495 446.569 452.681 446.43 452.681 446.195C452.681 445.959 452.48 445.82 452.151 445.82C451.822 445.82 451.622 445.945 451.622 446.25V446.195Z" fill="#263238"/>
<path d="M453.426 446.348C453.426 446.288 453.449 446.23 453.492 446.186C453.534 446.142 453.593 446.116 453.655 446.112C453.719 446.112 453.781 446.137 453.827 446.181C453.872 446.226 453.898 446.285 453.898 446.348C453.898 446.41 453.872 446.47 453.827 446.515C453.781 446.559 453.719 446.584 453.655 446.584C453.593 446.58 453.534 446.554 453.492 446.51C453.449 446.466 453.426 446.408 453.426 446.348ZM453.426 447.734C453.426 447.675 453.45 447.619 453.493 447.577C453.536 447.536 453.594 447.512 453.655 447.512C453.716 447.512 453.774 447.536 453.817 447.577C453.86 447.619 453.884 447.675 453.884 447.734C453.884 447.793 453.86 447.849 453.817 447.891C453.774 447.933 453.716 447.956 453.655 447.956C453.594 447.956 453.536 447.933 453.493 447.891C453.45 447.849 453.426 447.793 453.426 447.734Z" fill="#263238"/>
<path d="M454.213 446.735C454.213 445.972 454.642 445.542 455.215 445.542C455.787 445.542 456.202 445.972 456.202 446.748C456.202 447.525 455.773 447.941 455.2 447.941C454.628 447.941 454.213 447.511 454.213 446.735ZM455.845 446.735C455.845 446.125 455.587 445.82 455.215 445.82C454.843 445.82 454.571 446.125 454.571 446.721C454.571 447.317 454.828 447.636 455.2 447.636C455.573 447.636 455.845 447.344 455.845 446.748V446.735Z" fill="#263238"/>
<path d="M456.562 446.748C456.562 445.972 456.992 445.542 457.55 445.542C458.108 445.542 458.538 445.986 458.538 446.748C458.538 447.511 458.108 447.954 457.55 447.954C456.992 447.954 456.562 447.511 456.562 446.748ZM458.194 446.748C458.194 446.152 457.936 445.847 457.55 445.847C457.164 445.847 456.906 446.139 456.906 446.748C456.906 447.358 457.164 447.649 457.55 447.649C457.936 447.649 458.165 447.344 458.165 446.748H458.194Z" fill="#263238"/>
<path d="M417.918 447.497C417.812 447.49 417.712 447.445 417.638 447.371C417.564 447.296 417.521 447.198 417.518 447.095V445.029C417.518 444.977 417.528 444.924 417.549 444.876C417.57 444.827 417.601 444.783 417.639 444.745C417.678 444.708 417.723 444.678 417.774 444.658C417.824 444.638 417.878 444.627 417.933 444.627C417.986 444.627 418.04 444.638 418.089 444.658C418.139 444.679 418.184 444.708 418.221 444.746C418.259 444.784 418.288 444.828 418.307 444.877C418.326 444.925 418.335 444.977 418.333 445.029V447.095C418.333 447.201 418.29 447.304 418.212 447.379C418.134 447.454 418.028 447.497 417.918 447.497Z" fill="#263238"/>
<path d="M419.723 447.497C419.669 447.497 419.616 447.486 419.567 447.466C419.517 447.446 419.472 447.416 419.435 447.378C419.397 447.341 419.368 447.296 419.349 447.248C419.33 447.199 419.321 447.147 419.323 447.095V445.029C419.323 444.923 419.366 444.821 419.444 444.745C419.522 444.67 419.627 444.627 419.738 444.627C419.845 444.631 419.947 444.675 420.022 444.75C420.097 444.825 420.138 444.925 420.138 445.029V447.095C420.138 447.201 420.095 447.304 420.017 447.379C419.939 447.454 419.833 447.497 419.723 447.497Z" fill="#263238"/>
<path d="M508.43 442.729L417.633 442.521C417.401 442.521 417.179 442.432 417.015 442.274C416.852 442.115 416.76 441.9 416.76 441.676C416.76 441.451 416.852 441.236 417.015 441.078C417.179 440.919 417.401 440.83 417.633 440.83L508.444 441.038C508.559 441.038 508.672 441.06 508.778 441.102C508.884 441.145 508.981 441.207 509.062 441.286C509.143 441.364 509.207 441.457 509.251 441.56C509.295 441.663 509.317 441.773 509.317 441.884C509.317 441.996 509.294 442.107 509.25 442.21C509.205 442.314 509.139 442.408 509.057 442.486C508.974 442.565 508.876 442.627 508.768 442.669C508.661 442.71 508.546 442.731 508.43 442.729Z" fill="#E0E0E0"/>
<path d="M451.009 442.59L417.633 442.521C417.401 442.521 417.179 442.432 417.015 442.274C416.852 442.115 416.76 441.9 416.76 441.676C416.76 441.451 416.852 441.236 417.015 441.078C417.179 440.919 417.401 440.83 417.633 440.83L451.009 440.899C451.21 440.899 451.403 440.977 451.545 441.115C451.688 441.252 451.768 441.439 451.768 441.634V441.87C451.768 441.966 451.748 442.06 451.71 442.149C451.671 442.237 451.615 442.317 451.545 442.384C451.474 442.451 451.39 442.504 451.298 442.54C451.206 442.575 451.108 442.592 451.009 442.59Z" fill="#FF725E"/>
<path d="M452.656 441.759C452.648 442.185 452.469 442.592 452.156 442.893C451.843 443.193 451.422 443.363 450.981 443.367C450.649 443.367 450.325 443.271 450.049 443.092C449.774 442.914 449.559 442.659 449.433 442.362C449.306 442.065 449.274 441.738 449.34 441.423C449.406 441.108 449.567 440.819 449.802 440.593C450.038 440.367 450.338 440.214 450.663 440.153C450.989 440.092 451.326 440.126 451.632 440.251C451.938 440.375 452.198 440.585 452.38 440.854C452.563 441.122 452.658 441.437 452.656 441.759Z" fill="#FF725E"/>
<path d="M508.584 458.309C508.584 458.517 488.29 458.628 463.272 458.572C438.254 458.517 417.916 458.309 417.916 458.101C417.916 457.893 438.211 457.796 463.243 457.851C488.275 457.907 508.584 458.115 508.584 458.309Z" fill="#263238"/>
<path d="M508.57 467.043C508.57 467.251 488.275 467.361 463.243 467.306C438.211 467.251 417.916 467.043 417.916 466.779C417.916 466.516 438.197 466.474 463.229 466.53C488.261 466.585 508.57 466.793 508.57 467.043Z" fill="#263238"/>
<path d="M508.546 475.664C508.546 475.872 488.251 475.983 463.233 475.927C438.215 475.872 417.906 475.664 417.906 475.456C417.906 475.248 438.201 475.151 463.233 475.206C488.265 475.262 508.546 475.47 508.546 475.664Z" fill="#263238"/>
<path d="M507.759 97.7111L490.814 97.6279C490.261 97.6388 489.716 97.7549 489.21 97.9698C488.703 98.1846 488.246 98.494 487.863 98.8801C487.48 99.2663 487.18 99.7218 486.979 100.22C486.778 100.719 486.68 101.251 486.692 101.786V104.753C486.703 105.289 486.605 105.822 486.403 106.322C486.201 106.822 485.899 107.278 485.515 107.664C485.131 108.05 484.672 108.359 484.164 108.573C483.656 108.788 483.109 108.902 482.555 108.911L449.551 108.759C449 108.746 448.458 108.629 447.954 108.413C447.45 108.197 446.995 107.887 446.615 107.501C446.235 107.115 445.937 106.66 445.738 106.162C445.54 105.665 445.445 105.134 445.458 104.6V101.634C445.459 100.564 445.034 99.5345 444.272 98.76C443.51 97.9855 442.468 97.5254 441.365 97.4755H435.396H420.583C418.835 97.4627 417.101 97.784 415.481 98.4211C413.861 99.0582 412.386 99.9986 411.142 101.188C409.898 102.378 408.908 103.794 408.229 105.354C407.55 106.915 407.196 108.59 407.187 110.284L406.285 316.74C406.278 320.156 407.671 323.436 410.158 325.859C412.646 328.281 416.025 329.648 419.553 329.659L506.729 330.047C508.476 330.058 510.208 329.735 511.827 329.097C513.445 328.459 514.918 327.519 516.161 326.329C517.404 325.14 518.392 323.725 519.07 322.165C519.748 320.605 520.101 318.931 520.111 317.239L520.97 110.63C520.977 107.223 519.592 103.952 517.117 101.531C514.641 99.1101 511.277 97.7367 507.759 97.7111Z" fill="white"/>
<path d="M507.758 97.7109H508.216C508.666 97.7174 509.116 97.7545 509.561 97.8218C511.325 98.035 513.022 98.6066 514.542 99.499C517.039 100.944 518.987 103.132 520.095 105.737C520.775 107.399 521.106 109.175 521.068 110.963C521.068 112.862 521.068 114.899 521.068 117.034C520.997 134.209 520.911 159.035 520.796 189.725C520.682 220.415 520.524 256.94 520.353 297.513C520.353 302.587 520.352 307.716 520.281 312.914C520.209 315.492 520.524 318.167 519.708 320.732C519.298 322.002 518.705 323.211 517.948 324.322C517.143 325.42 516.179 326.401 515.086 327.233C512.881 328.923 510.18 329.893 507.371 330.005C504.595 330.005 501.818 330.005 499.027 330.005L482.081 329.922L447.331 329.811L429.555 329.742H420.567C417.52 329.889 414.505 329.072 411.98 327.413C409.453 325.713 407.6 323.229 406.727 320.371C406.312 318.962 406.128 317.498 406.183 316.033C406.183 314.577 406.183 313.136 406.183 311.68C406.183 305.904 406.212 300.166 406.269 294.464C406.269 283.051 406.317 271.823 406.412 260.78C406.513 238.698 406.613 217.407 406.699 197.113C406.785 176.82 406.885 157.538 406.971 139.504C406.971 130.475 407.009 121.77 407.085 113.388C406.972 111.31 407.111 109.226 407.5 107.178C408.001 105.187 408.982 103.339 410.363 101.786C411.729 100.273 413.432 99.0785 415.343 98.2931C417.226 97.57 419.244 97.2349 421.269 97.3089H432.861H438.429H441.163C442.088 97.2858 442.997 97.5532 443.753 98.0713C444.486 98.6 445.031 99.3363 445.313 100.178C445.531 101.006 445.608 101.863 445.542 102.715C445.492 103.541 445.492 104.37 445.542 105.196C445.66 105.998 446.024 106.746 446.587 107.345C447.134 107.939 447.86 108.351 448.662 108.523C449.468 108.63 450.283 108.667 451.095 108.634H455.89L473.437 108.731H481.165C481.781 108.731 482.396 108.731 482.983 108.731C483.563 108.669 484.122 108.479 484.615 108.176C485.566 107.58 486.234 106.643 486.475 105.57C486.593 104.544 486.641 103.512 486.618 102.479C486.522 101.486 486.732 100.488 487.22 99.6099C487.697 98.7922 488.458 98.164 489.366 97.8356C490.218 97.5829 491.114 97.4981 492 97.5861H500.587L507.743 97.6554H500.587H492C491.123 97.573 490.238 97.6577 489.395 97.9049C488.509 98.2332 487.77 98.8511 487.305 99.6515C486.835 100.5 486.631 101.464 486.719 102.424C486.763 103.469 486.729 104.516 486.618 105.557C486.503 106.107 486.273 106.629 485.944 107.091C485.614 107.554 485.191 107.946 484.701 108.246C484.194 108.557 483.622 108.756 483.026 108.828C482.411 108.828 481.81 108.828 481.194 108.828H473.465H455.919H451.124C450.297 108.86 449.468 108.822 448.648 108.717C447.812 108.535 447.056 108.104 446.487 107.483C445.894 106.865 445.51 106.087 445.385 105.252C445.285 104.406 445.385 103.588 445.385 102.743C445.451 101.91 445.379 101.072 445.17 100.261C444.911 99.4678 444.413 98.7677 443.739 98.2515C442.308 97.1564 440.332 97.6138 438.529 97.503H432.962H421.354C419.363 97.4347 417.379 97.7699 415.529 98.4871C413.65 99.2589 411.976 100.434 410.635 101.925C409.249 103.443 408.267 105.265 407.772 107.234C407.381 109.262 407.242 111.328 407.357 113.388C407.357 121.779 407.324 130.485 407.257 139.504C407.185 157.524 407.099 176.82 407.014 197.113C406.928 217.407 406.842 238.698 406.742 260.78C406.742 271.814 406.694 283.042 406.598 294.464C406.598 300.166 406.575 305.904 406.527 311.68C406.527 313.136 406.527 314.577 406.527 316.033C406.465 317.47 406.644 318.907 407.056 320.288C407.903 323.098 409.716 325.544 412.195 327.219C414.682 328.852 417.653 329.651 420.653 329.492H429.641L447.417 329.576L482.182 329.728L499.127 329.811C501.918 329.811 504.709 329.811 507.457 329.811C510.205 329.703 512.848 328.762 515.014 327.122C516.071 326.303 517.001 325.341 517.776 324.267C518.527 323.185 519.11 322.004 519.508 320.76C520.31 318.251 519.995 315.603 520.081 313.011C520.081 307.813 520.081 302.684 520.152 297.61C520.338 257.037 520.51 220.512 520.653 189.822C520.796 159.132 520.925 134.375 521.011 117.131C520.925 112.876 521.526 108.939 520.095 105.862C519.002 103.272 517.074 101.094 514.599 99.6515C513.086 98.7515 511.393 98.1706 509.633 97.9465C509.191 97.8833 508.747 97.8417 508.302 97.8218L507.758 97.7109Z" fill="#263238"/>
<path d="M506.109 127.625C506.109 127.819 487.704 127.985 464.99 127.985C442.277 127.985 423.871 127.819 423.871 127.625C423.871 127.43 442.277 127.264 464.99 127.264C487.704 127.264 506.109 127.43 506.109 127.625Z" fill="#263238"/>
<path d="M502.434 260.544H427.695V310.807H502.434V260.544Z" fill="#FF725E"/>
<path d="M352.369 148.223H326.994C325.322 148.259 323.734 148.936 322.577 150.106C321.421 151.275 320.79 152.842 320.825 154.461V158.924C320.86 160.539 320.231 162.102 319.077 163.269C317.923 164.436 316.338 165.112 314.671 165.148H265.207C264.38 165.13 263.565 164.954 262.808 164.631C262.051 164.308 261.367 163.843 260.796 163.264C260.224 162.685 259.776 162.002 259.477 161.255C259.178 160.508 259.034 159.711 259.053 158.91V154.447C259.088 152.828 258.458 151.262 257.301 150.092C256.144 148.923 254.556 148.245 252.885 148.209H221.755C216.483 148.231 211.432 150.264 207.698 153.868C203.963 157.472 201.845 162.357 201.804 167.463L201.732 477.605C201.751 482.725 203.859 487.631 207.596 491.253C211.333 494.875 216.397 496.92 221.684 496.942L352.298 497.025C357.587 497.007 362.654 494.963 366.395 491.341C370.135 487.718 372.244 482.811 372.263 477.688L372.335 167.532C372.309 162.414 370.196 157.513 366.456 153.897C362.717 150.28 357.654 148.241 352.369 148.223Z" fill="white"/>
<path d="M352.369 148.223H353.042C353.722 148.227 354.401 148.278 355.074 148.376C357.725 148.68 360.277 149.531 362.559 150.871C364.255 151.833 365.789 153.039 367.111 154.447C368.73 156.136 370.02 158.094 370.918 160.228C371.934 162.723 372.42 165.392 372.349 168.073C372.349 170.929 372.349 173.969 372.349 177.194C372.349 202.949 372.349 240.223 372.421 286.286C372.492 332.348 372.421 387.199 372.421 448.094V477.064C372.457 479.059 372.196 481.047 371.648 482.97C371.096 484.902 370.236 486.74 369.1 488.417C367.947 490.096 366.549 491.604 364.95 492.895C361.668 495.472 357.632 496.985 353.414 497.219C349.235 497.344 345.07 497.219 340.862 497.219H263.347H236.654H223.172C218.563 497.472 213.997 496.249 210.177 493.74C206.372 491.184 203.58 487.449 202.262 483.15C201.637 481.024 201.357 478.816 201.432 476.607V444.24C201.432 427.116 201.432 410.265 201.432 393.686C201.432 360.543 201.432 328.536 201.432 298.124C201.432 267.711 201.432 238.726 201.432 211.641C201.432 198.093 201.432 185.031 201.432 172.454C201.432 170.887 201.432 169.321 201.432 167.768C201.432 166.978 201.432 166.202 201.532 165.412C201.632 164.622 201.747 163.859 201.947 163.111C202.667 160.101 204.103 157.295 206.14 154.919C208.132 152.64 210.635 150.831 213.457 149.63C216.279 148.429 219.348 147.867 222.428 147.988H252.298C253.694 147.924 255.074 148.299 256.233 149.055C257.36 149.821 258.215 150.906 258.681 152.16C259.053 153.401 259.189 154.698 259.082 155.986V157.871C259.038 158.485 259.038 159.101 259.082 159.715C259.224 160.903 259.721 162.026 260.513 162.944C261.311 163.843 262.376 164.481 263.561 164.774C264.151 164.917 264.758 164.978 265.365 164.954H274.41H300.745H312.352C313.268 164.954 314.198 164.954 315.071 164.954C315.936 164.856 316.768 164.572 317.504 164.123C318.228 163.694 318.855 163.128 319.347 162.459C319.839 161.789 320.186 161.03 320.367 160.228C320.505 159.454 320.558 158.669 320.524 157.885V155.57C320.493 154.816 320.527 154.06 320.624 153.311C320.756 152.586 321.012 151.888 321.383 151.245C322.079 149.988 323.209 149.007 324.575 148.473C325.854 148.078 327.202 147.937 328.539 148.057H341.492H349.449H352.169C352.169 148.057 351.238 148.057 349.449 148.057H341.492H328.539C327.221 147.941 325.892 148.082 324.632 148.473C323.319 148.981 322.231 149.918 321.555 151.12C321.196 151.75 320.949 152.435 320.825 153.144C320.733 153.88 320.7 154.621 320.725 155.362V157.927C320.757 158.724 320.705 159.523 320.567 160.311C320.393 161.136 320.05 161.919 319.558 162.615C319.066 163.31 318.436 163.903 317.705 164.358C316.931 164.824 316.062 165.122 315.157 165.232C314.241 165.315 313.34 165.232 312.424 165.232H265.622C264.992 165.254 264.361 165.193 263.747 165.051C262.49 164.748 261.36 164.075 260.513 163.125C259.658 162.16 259.111 160.975 258.939 159.715C258.896 159.087 258.896 158.457 258.939 157.83V155.944C259.038 154.697 258.902 153.443 258.538 152.243C258.106 151.054 257.3 150.026 256.233 149.305C255.136 148.582 253.823 148.231 252.498 148.307H222.571C219.54 148.199 216.525 148.768 213.757 149.969C210.99 151.171 208.545 152.974 206.613 155.237C204.616 157.566 203.209 160.314 202.505 163.263C202.305 163.998 202.248 164.76 202.104 165.509C201.961 166.257 202.004 167.048 202.004 167.824V211.696C202.004 238.782 202.004 267.725 202.004 298.179V393.742C202.004 410.311 202.004 427.162 202.004 444.295V476.607C201.929 478.765 202.204 480.922 202.82 482.997C204.11 487.171 206.818 490.801 210.506 493.297C214.239 495.733 218.692 496.921 223.186 496.679H263.347H315.529H340.948C345.141 496.679 349.349 496.748 353.471 496.679C357.568 496.461 361.492 495.007 364.692 492.52C366.253 491.268 367.618 489.801 368.742 488.168C369.846 486.538 370.681 484.751 371.218 482.873C371.757 480.996 372.013 479.054 371.977 477.106V448.135C371.977 387.241 371.977 332.39 372.077 286.327C372.177 240.265 372.163 202.991 372.192 177.236C372.192 174.001 372.192 170.961 372.192 168.115C372.255 165.452 371.768 162.803 370.76 160.325C369.868 158.213 368.599 156.27 367.011 154.586C365.704 153.179 364.184 151.973 362.502 151.01C360.234 149.665 357.698 148.8 355.06 148.473C354.393 148.362 353.718 148.301 353.042 148.293L352.369 148.223Z" fill="#263238"/>
<path d="M356.376 181.589C356.376 181.672 353.085 181.769 349.006 181.797C344.927 181.824 341.635 181.797 341.635 181.7C341.635 181.603 344.941 181.533 349.006 181.492C353.07 181.45 356.376 181.492 356.376 181.589Z" fill="#263238"/>
<path d="M356.462 185.234C356.462 185.317 353.156 185.414 349.092 185.455C345.027 185.497 341.721 185.455 341.721 185.358C341.721 185.261 345.013 185.178 349.077 185.151C353.142 185.123 356.448 185.151 356.462 185.234Z" fill="#263238"/>
<path d="M356.492 188.893C356.492 188.976 353.186 189.073 349.121 189.101C345.056 189.129 341.75 189.101 341.75 189.004C341.75 188.907 345.042 188.837 349.121 188.796C353.2 188.754 356.492 188.81 356.492 188.893Z" fill="#263238"/>
<path d="M216.117 191.194H216.432H217.276L220.425 191.125L220.411 191.194C220.411 190.529 220.411 189.808 220.411 188.99C220.411 188.574 220.411 188.186 220.411 187.715C220.461 187.469 220.591 187.245 220.781 187.076C220.972 186.906 221.213 186.8 221.47 186.772C221.971 186.772 222.415 186.772 222.901 186.772C223.189 186.818 223.451 186.962 223.64 187.178C223.829 187.394 223.932 187.668 223.932 187.951V191.166L223.774 191.028H227.753L227.596 191.166C227.596 189.628 227.596 188.02 227.596 186.384V185.164C227.582 184.98 227.524 184.802 227.428 184.643C227.331 184.485 227.197 184.35 227.037 184.249L225.306 182.586L223.631 180.992L222.815 180.216C222.608 179.946 222.325 179.739 222 179.62C221.844 179.58 221.681 179.574 221.522 179.603C221.364 179.632 221.214 179.694 221.084 179.786L220.354 180.493L218.922 181.879C218.035 182.78 217.09 183.598 216.418 184.374C216.23 184.812 216.161 185.289 216.217 185.76V187.147C216.217 187.978 216.217 188.713 216.217 189.337C216.217 189.961 216.217 190.349 216.217 190.723C216.228 190.889 216.228 191.056 216.217 191.222C216.217 191.222 216.217 191.069 216.217 190.764V189.378C216.217 188.755 216.217 187.992 216.217 187.188C216.217 186.745 216.217 186.287 216.217 185.802C216.217 185.552 216.217 185.303 216.217 185.04C216.217 184.756 216.296 184.479 216.446 184.236C217.176 183.376 218.049 182.6 218.951 181.671L220.382 180.285C220.64 180.036 220.855 179.8 221.155 179.55C221.317 179.432 221.503 179.351 221.701 179.313C221.9 179.275 222.104 179.28 222.3 179.329C222.676 179.456 223.007 179.682 223.259 179.98L224.075 180.756L225.749 182.35L227.495 184.014C227.654 184.157 227.802 184.309 227.939 184.471C228.07 184.665 228.139 184.891 228.14 185.123C228.14 185.525 228.14 185.941 228.14 186.343C228.14 187.992 228.14 189.586 228.14 191.139V191.291H227.982H224.018H223.86V191.194C223.86 190.071 223.86 188.99 223.86 187.964C223.866 187.742 223.788 187.524 223.641 187.353C223.493 187.182 223.286 187.069 223.059 187.036C222.601 187.036 222.071 187.036 221.627 187.036C221.424 187.06 221.233 187.145 221.082 187.279C220.93 187.414 220.826 187.59 220.783 187.784C220.783 188.172 220.783 188.63 220.783 189.018V191.319H220.683H217.491H216.117V191.194Z" fill="#263238"/>
<path d="M254.803 389.154H224.332V418.666H254.803V389.154Z" fill="#FF725E"/>
<path d="M313.441 392.341C313.441 392.48 303.25 392.591 290.684 392.591C278.118 392.591 267.928 392.48 267.928 392.341C267.928 392.202 278.104 392.078 290.684 392.078C303.265 392.078 313.441 392.188 313.441 392.341Z" fill="#FF725E"/>
<path d="M349.707 401.38C349.707 401.518 331.401 401.629 308.817 401.629C286.232 401.629 267.912 401.518 267.912 401.38C267.912 401.241 286.218 401.13 308.817 401.13C331.416 401.13 349.707 401.241 349.707 401.38Z" fill="#263238"/>
<path d="M348.748 407.839C348.748 407.978 330.657 408.088 308.33 408.088C286.003 408.088 267.912 407.978 267.912 407.839C267.912 407.7 286.003 407.589 308.33 407.589C330.657 407.589 348.748 407.7 348.748 407.839Z" fill="#263238"/>
<path d="M315.644 414.007C315.644 414.146 304.952 414.257 291.771 414.257C278.589 414.257 267.912 414.146 267.912 414.007C267.912 413.869 278.589 413.758 291.771 413.758C304.952 413.758 315.644 413.869 315.644 414.007Z" fill="#263238"/>
<g opacity="0.3">
<path d="M254.801 389.153H224.33V418.665H254.801V389.153Z" fill="black"/>
</g>
<path d="M254.803 437.199H224.332V466.71H254.803V437.199Z" fill="#FF725E"/>
<path d="M313.441 440.373C313.441 440.511 303.25 440.622 290.684 440.622C278.118 440.622 267.928 440.511 267.928 440.373C267.928 440.234 278.104 440.123 290.684 440.123C303.265 440.123 313.441 440.234 313.441 440.373Z" fill="#FF725E"/>
<path d="M349.707 449.41C349.707 449.548 331.401 449.673 308.817 449.673C286.232 449.673 267.912 449.548 267.912 449.41C267.912 449.271 286.218 449.16 308.817 449.16C331.416 449.16 349.707 449.271 349.707 449.41Z" fill="#263238"/>
<path d="M348.748 455.953C348.748 456.091 330.657 456.202 308.33 456.202C286.003 456.202 267.912 456.091 267.912 455.953C267.912 455.814 286.003 455.689 308.33 455.689C330.657 455.689 348.748 455.745 348.748 455.953Z" fill="#263238"/>
<path d="M315.644 462.039C315.644 462.178 304.952 462.289 291.771 462.289C278.589 462.289 267.912 462.178 267.912 462.039C267.912 461.9 278.589 461.79 291.771 461.79C304.952 461.79 315.644 461.9 315.644 462.039Z" fill="#263238"/>
<g opacity="0.3">
<path d="M254.801 437.199H224.33V466.711H254.801V437.199Z" fill="black"/>
</g>
<path d="M241.46 233.093L241.066 301.416L334.925 301.924L335.319 233.6L241.46 233.093Z" fill="#3861FB"/>
<path d="M239.848 301.408L272.88 259.103L293.032 285.786L306.886 271.661L333.722 301.907L239.848 301.408Z" fill="#FF725E"/>
<path d="M301.833 254.057C301.824 255.472 301.383 256.852 300.564 258.024C299.746 259.195 298.587 260.106 297.234 260.639C295.881 261.173 294.396 261.306 292.965 261.022C291.534 260.738 290.222 260.05 289.195 259.044C288.168 258.038 287.473 256.759 287.196 255.37C286.92 253.981 287.074 252.544 287.641 251.24C288.208 249.936 289.161 248.824 290.38 248.045C291.6 247.266 293.03 246.855 294.49 246.863C295.46 246.868 296.42 247.059 297.313 247.423C298.207 247.788 299.018 248.319 299.7 248.987C300.382 249.655 300.921 250.447 301.287 251.317C301.653 252.187 301.838 253.118 301.833 254.057Z" fill="#FF725E"/>
<g opacity="0.2">
<path d="M239.842 301.408L272.875 259.103L293.026 285.786L306.881 271.661L333.716 301.907L239.842 301.408Z" fill="black"/>
</g>
<g opacity="0.2">
<path d="M301.831 254.057C301.822 255.472 301.381 256.852 300.562 258.024C299.744 259.195 298.585 260.106 297.232 260.639C295.879 261.173 294.394 261.306 292.963 261.022C291.532 260.738 290.22 260.05 289.193 259.044C288.167 258.038 287.471 256.759 287.194 255.37C286.918 253.981 287.072 252.544 287.639 251.24C288.206 249.936 289.159 248.824 290.378 248.045C291.598 247.266 293.028 246.855 294.489 246.863C295.458 246.868 296.418 247.059 297.311 247.423C298.205 247.788 299.016 248.319 299.698 248.987C300.38 249.655 300.919 250.447 301.285 251.317C301.651 252.187 301.836 253.118 301.831 254.057Z" fill="black"/>
</g>
<path d="M347.863 314.897C347.863 315.091 320.598 315.257 286.978 315.257C253.359 315.257 226.094 315.091 226.094 314.897C226.094 314.703 253.33 314.564 286.978 314.564C320.626 314.564 347.863 314.703 347.863 314.897Z" fill="#263238"/>
<path d="M347.863 322.576C347.863 322.77 320.598 322.936 286.978 322.936C253.359 322.936 226.094 322.77 226.094 322.576C226.094 322.382 253.359 322.215 286.978 322.215C320.598 322.215 347.863 322.368 347.863 322.576Z" fill="#263238"/>
<path d="M306.828 359.364H267.126C264.366 359.364 261.72 358.303 259.768 356.413C257.817 354.523 256.721 351.96 256.721 349.287C256.721 346.614 257.817 344.051 259.768 342.161C261.72 340.271 264.366 339.209 267.126 339.209H306.828C308.195 339.208 309.549 339.467 310.812 339.973C312.075 340.479 313.223 341.221 314.19 342.157C315.156 343.093 315.923 344.205 316.445 345.428C316.967 346.652 317.235 347.963 317.233 349.287C317.235 350.611 316.967 351.922 316.445 353.146C315.923 354.369 315.156 355.481 314.19 356.417C313.223 357.353 312.075 358.095 310.812 358.601C309.549 359.107 308.195 359.366 306.828 359.364Z" fill="#3861FB"/>
<path d="M370.601 369.387C370.601 369.581 333.074 369.747 286.788 369.747C240.502 369.747 202.961 369.581 202.961 369.387C202.961 369.193 240.488 369.026 286.788 369.026C333.088 369.026 370.601 369.179 370.601 369.387Z" fill="#E0E0E0"/>
<path d="M321.523 216.437C321.523 216.645 306.051 216.797 286.973 216.797C267.895 216.797 252.438 216.645 252.438 216.437C252.438 216.229 267.895 216.077 286.973 216.077C306.051 216.077 321.523 216.243 321.523 216.437Z" fill="#FF725E"/>
<path d="M328.441 349.288C328.441 349.721 328.308 350.144 328.06 350.505C327.811 350.865 327.458 351.145 327.045 351.311C326.631 351.477 326.177 351.52 325.738 351.436C325.299 351.351 324.897 351.143 324.58 350.836C324.264 350.53 324.049 350.14 323.961 349.715C323.874 349.29 323.919 348.85 324.09 348.45C324.261 348.049 324.551 347.707 324.923 347.467C325.295 347.226 325.732 347.098 326.179 347.098C326.779 347.098 327.354 347.328 327.778 347.739C328.202 348.15 328.441 348.707 328.441 349.288Z" fill="#FF725E"/>
<path d="M420.023 204.792C419.842 204.813 419.66 204.813 419.479 204.792H417.847H411.564L388.149 205.056L388.407 204.82C388.407 226.056 388.407 257.051 388.407 291.497C388.407 312.623 388.278 332.459 388.235 349.314V349.633H387.863L343.166 349.495L330.628 349.412H327.322H326.478H326.191H326.478H327.322H330.628L343.166 349.328L387.863 349.19L387.548 349.509C387.548 332.639 387.548 312.817 387.62 291.691C387.734 257.245 387.834 226.25 387.906 205.014V204.765H388.149L411.564 204.876H417.847H419.479L420.023 204.792Z" fill="#FF725E"/>
<path d="M465.062 296.086C471.053 296.086 475.91 291.381 475.91 285.578C475.91 279.775 471.053 275.071 465.062 275.071C459.07 275.071 454.213 279.775 454.213 285.578C454.213 291.381 459.07 296.086 465.062 296.086Z" fill="white"/>
<path d="M462.387 285.578V280.851L466.623 283.208L470.86 285.578L466.623 287.948L462.387 290.305V285.578Z" fill="#FF725E"/>
<path d="M426.903 139.42L426.592 193.355L500.685 193.756L500.996 139.821L426.903 139.42Z" fill="#455A64"/>
<path d="M425.635 193.344L451.712 159.965L467.627 181.021L478.562 169.862L499.744 193.746L425.635 193.344Z" fill="#3861FB"/>
<path d="M474.579 155.972C474.573 157.091 474.225 158.183 473.579 159.11C472.933 160.037 472.017 160.757 470.948 161.18C469.879 161.603 468.704 161.71 467.572 161.486C466.441 161.262 465.403 160.719 464.59 159.924C463.778 159.129 463.227 158.119 463.007 157.021C462.787 155.923 462.909 154.786 463.356 153.755C463.803 152.723 464.556 151.844 465.519 151.227C466.483 150.61 467.613 150.284 468.768 150.289C470.316 150.3 471.796 150.904 472.885 151.969C473.974 153.034 474.583 154.474 474.579 155.972Z" fill="#263238"/>
<path d="M492.6 204.044H435.236V207.759H492.6V204.044Z" fill="#455A64"/>
<path d="M505.054 218.432C505.054 218.64 486.634 218.806 463.934 218.806C441.235 218.806 422.801 218.64 422.801 218.432C422.801 218.224 441.206 218.072 463.934 218.072C486.662 218.072 505.054 218.238 505.054 218.432Z" fill="#263238"/>
<path d="M505.054 228.621C505.054 228.829 486.634 228.995 463.934 228.995C441.235 228.995 422.801 228.829 422.801 228.621C422.801 228.413 441.206 228.26 463.934 228.26C486.662 228.26 505.054 228.413 505.054 228.621Z" fill="#263238"/>
<path d="M505.054 238.782C505.054 238.99 486.634 239.142 463.934 239.142C441.235 239.142 422.801 238.99 422.801 238.782C422.801 238.574 441.206 238.421 463.934 238.421C486.662 238.421 505.054 238.588 505.054 238.782Z" fill="#263238"/>
<path d="M505.054 248.956C505.054 249.164 486.634 249.316 463.934 249.316C441.235 249.316 422.801 249.164 422.801 248.956C422.801 248.748 441.206 248.595 463.934 248.595C486.662 248.595 505.054 248.762 505.054 248.956Z" fill="#263238"/>
<path d="M422.286 204.793C422.286 205.226 422.154 205.649 421.905 206.009C421.657 206.37 421.304 206.65 420.89 206.816C420.477 206.982 420.022 207.025 419.584 206.941C419.145 206.856 418.742 206.648 418.426 206.341C418.11 206.035 417.894 205.645 417.807 205.22C417.72 204.795 417.765 204.355 417.936 203.955C418.107 203.554 418.397 203.212 418.769 202.972C419.141 202.731 419.578 202.603 420.025 202.603C420.625 202.603 421.2 202.833 421.624 203.244C422.048 203.655 422.286 204.212 422.286 204.793Z" fill="#FF725E"/>
<path d="M467.255 317.64C467.31 318.07 467.229 318.506 467.022 318.891C466.815 319.275 466.492 319.589 466.096 319.791C465.701 319.994 465.251 320.075 464.807 320.023C464.362 319.972 463.945 319.791 463.609 319.504C463.274 319.218 463.036 318.839 462.928 318.418C462.82 317.998 462.847 317.555 463.005 317.15C463.163 316.744 463.445 316.395 463.813 316.148C464.181 315.902 464.617 315.769 465.065 315.769C465.611 315.739 466.147 315.918 466.557 316.268C466.967 316.619 467.218 317.112 467.255 317.64Z" fill="#FF725E"/>
<path d="M467.251 367.071C467.303 367.501 467.219 367.936 467.01 368.319C466.801 368.702 466.477 369.014 466.081 369.214C465.684 369.414 465.235 369.493 464.791 369.439C464.348 369.386 463.931 369.204 463.597 368.916C463.263 368.629 463.027 368.25 462.921 367.829C462.814 367.409 462.842 366.967 463.001 366.563C463.16 366.158 463.442 365.81 463.81 365.564C464.178 365.318 464.614 365.186 465.061 365.186C465.608 365.159 466.144 365.342 466.554 365.695C466.963 366.047 467.214 366.542 467.251 367.071Z" fill="#FF725E"/>
<path d="M465.06 367.072C464.859 367.072 464.688 355.983 464.688 342.357C464.688 328.731 464.859 317.642 465.06 317.642C465.26 317.642 465.432 328.731 465.432 342.357C465.432 355.983 465.26 367.072 465.06 367.072Z" fill="#FF725E"/>
<path d="M286.772 199.082C286.772 199.082 286.772 198.943 286.772 198.708C286.772 198.472 286.772 198.056 286.772 197.599C286.772 196.587 286.772 195.159 286.772 193.33C286.772 189.559 286.701 184.153 286.658 177.389C286.658 163.763 286.658 144.717 286.529 122.801L286.887 123.162H261.812L188.447 123.065L166.22 122.954L160.18 122.884H158.606C158.43 122.903 158.252 122.903 158.076 122.884H158.606H160.18L166.22 122.815L188.447 122.704L261.812 122.593H287.144V122.94C287.144 144.855 287.044 163.901 287.016 177.527C287.016 184.292 286.93 189.698 286.901 193.468C286.901 195.298 286.901 196.726 286.901 197.738C286.901 198.195 286.901 198.555 286.901 198.846C286.866 198.929 286.823 199.008 286.772 199.082Z" fill="#FF725E"/>
<path d="M289.11 199.081C289.113 199.517 288.982 199.945 288.733 200.309C288.485 200.673 288.131 200.958 287.715 201.127C287.299 201.296 286.841 201.341 286.399 201.258C285.957 201.174 285.55 200.966 285.23 200.658C284.911 200.35 284.692 199.958 284.603 199.53C284.514 199.102 284.559 198.658 284.73 198.254C284.902 197.851 285.194 197.506 285.568 197.263C285.943 197.02 286.384 196.891 286.834 196.891C287.435 196.891 288.012 197.121 288.438 197.531C288.865 197.942 289.106 198.499 289.11 199.081Z" fill="#FF725E"/>
<path d="M160.298 122.801C160.298 123.234 160.165 123.658 159.917 124.018C159.668 124.378 159.315 124.659 158.902 124.824C158.489 124.99 158.034 125.034 157.596 124.949C157.157 124.865 156.754 124.656 156.438 124.35C156.121 124.043 155.906 123.653 155.819 123.228C155.732 122.803 155.776 122.363 155.948 121.963C156.119 121.563 156.409 121.221 156.78 120.98C157.152 120.739 157.589 120.611 158.037 120.611C158.635 120.614 159.208 120.846 159.632 121.256C160.055 121.666 160.294 122.221 160.298 122.801Z" fill="#FF725E"/>
</svg>
