<svg width="1440" height="696" viewBox="0 0 1440 696" fill="none" xmlns="http://www.w3.org/2000/svg">
<g clip-path="url(#clip0_1995_32)">
<rect width="1440" height="696" fill="#030303"/>
<circle cx="446.497" cy="171.497" r="11.4969" fill="#532301"/>
<circle cx="706" cy="369" r="224.5" stroke="#705F00"/>
<ellipse cx="12.7256" cy="192.281" rx="3.68719" ry="3.81767" transform="rotate(47.9546 12.7256 192.281)" fill="#403D3D"/>
<ellipse cx="31.0586" cy="212.609" rx="3.68719" ry="3.81767" transform="rotate(47.9546 31.0586 212.609)" fill="#403D3D"/>
<ellipse cx="2.32182" cy="238.526" rx="3.68719" ry="3.81767" transform="rotate(47.9546 2.32182 238.526)" fill="#403D3D"/>
<ellipse cx="49.3916" cy="232.938" rx="3.68719" ry="3.81767" transform="rotate(47.9546 49.3916 232.938)" fill="#403D3D"/>
<ellipse cx="20.6548" cy="258.854" rx="3.68719" ry="3.81767" transform="rotate(47.9546 20.6548 258.854)" fill="#403D3D"/>
<ellipse cx="67.7251" cy="253.267" rx="3.68719" ry="3.81767" transform="rotate(47.9546 67.7251 253.267)" fill="#403D3D"/>
<ellipse cx="38.9883" cy="279.183" rx="3.68719" ry="3.81767" transform="rotate(47.9546 38.9883 279.183)" fill="#403D3D"/>
<ellipse cx="10.251" cy="305.099" rx="3.68719" ry="3.81767" transform="rotate(47.9546 10.251 305.099)" fill="#403D3D"/>
<ellipse cx="86.0582" cy="273.595" rx="3.68719" ry="3.81767" transform="rotate(47.9546 86.0582 273.595)" fill="#403D3D"/>
<ellipse cx="57.3213" cy="299.511" rx="3.68719" ry="3.81767" transform="rotate(47.9546 57.3213 299.511)" fill="#403D3D"/>
<ellipse cx="28.5845" cy="325.427" rx="3.68719" ry="3.81767" transform="rotate(47.9546 28.5845 325.427)" fill="#403D3D"/>
<ellipse cx="-0.152785" cy="351.344" rx="3.68719" ry="3.81767" transform="rotate(47.9546 -0.152785 351.344)" fill="#403D3D"/>
<ellipse cx="104.391" cy="293.924" rx="3.68719" ry="3.81767" transform="rotate(47.9546 104.391 293.924)" fill="#403D3D"/>
<ellipse cx="75.6543" cy="319.84" rx="3.68719" ry="3.81767" transform="rotate(47.9546 75.6543 319.84)" fill="#403D3D"/>
<ellipse cx="46.9175" cy="345.756" rx="3.68719" ry="3.81767" transform="rotate(47.9546 46.9175 345.756)" fill="#403D3D"/>
<ellipse cx="18.1807" cy="371.672" rx="3.68719" ry="3.81767" transform="rotate(47.9546 18.1807 371.672)" fill="#403D3D"/>
<ellipse cx="122.725" cy="314.252" rx="3.68719" ry="3.81767" transform="rotate(47.9546 122.725 314.252)" fill="#403D3D"/>
<ellipse cx="93.9874" cy="340.169" rx="3.68719" ry="3.81767" transform="rotate(47.9546 93.9874 340.169)" fill="#403D3D"/>
<ellipse cx="65.2505" cy="366.085" rx="3.68719" ry="3.81767" transform="rotate(47.9546 65.2505 366.085)" fill="#403D3D"/>
<ellipse cx="36.5137" cy="392.001" rx="3.68719" ry="3.81767" transform="rotate(47.9546 36.5137 392.001)" fill="#403D3D"/>
<ellipse cx="7.7769" cy="417.917" rx="3.68719" ry="3.81767" transform="rotate(47.9546 7.7769 417.917)" fill="#403D3D"/>
<mask id="mask0_1995_32" style="mask-type:alpha" maskUnits="userSpaceOnUse" x="1214" y="491" width="150" height="150">
<circle cx="1289" cy="566" r="75" fill="#040404"/>
</mask>
<g mask="url(#mask0_1995_32)">
<line x1="1298" y1="584.5" x2="1299" y2="584.5" stroke="black"/>
<line x1="1276.68" y1="487.736" x2="1214.68" y2="544.736" stroke="#212E37" stroke-width="2"/>
<line x1="1276.68" y1="478.736" x2="1214.68" y2="535.736" stroke="#212E37" stroke-width="2"/>
<line x1="1288.66" y1="487.751" x2="1214.66" y2="552.751" stroke="#212E37" stroke-width="2"/>
<line x1="1299.66" y1="491.75" x2="1214.66" y2="566.75" stroke="#212E37" stroke-width="2"/>
<line x1="1337.63" y1="506.779" x2="1224.63" y2="597.779" stroke="#212E37" stroke-width="2"/>
<line x1="1333.63" y1="499.779" x2="1220.63" y2="590.779" stroke="#212E37" stroke-width="2"/>
<line x1="1321.63" y1="496.779" x2="1208.63" y2="587.779" stroke="#212E37" stroke-width="2"/>
<line x1="1315.63" y1="491.779" x2="1202.63" y2="582.779" stroke="#212E37" stroke-width="2"/>
<line x1="1344.62" y1="512.781" x2="1229.62" y2="604.781" stroke="#212E37" stroke-width="2"/>
<line x1="1348.64" y1="520.767" x2="1237.64" y2="613.767" stroke="#212E37" stroke-width="2"/>
<line x1="1354.64" y1="528.767" x2="1244.64" y2="620.767" stroke="#212E37" stroke-width="2"/>
<line x1="1359.64" y1="536.768" x2="1250.64" y2="627.768" stroke="#212E37" stroke-width="2"/>
<line x1="1362.65" y1="544.758" x2="1262.65" y2="630.758" stroke="#212E37" stroke-width="2"/>
<line x1="1362.64" y1="559.768" x2="1271.64" y2="635.768" stroke="#212E37" stroke-width="2"/>
<line x1="1362.63" y1="571.779" x2="1280.63" y2="637.779" stroke="#212E37" stroke-width="2"/>
<line x1="1364.63" y1="579.779" x2="1282.63" y2="645.779" stroke="#212E37" stroke-width="2"/>
<line x1="1364.63" y1="590.779" x2="1282.63" y2="656.779" stroke="#212E37" stroke-width="2"/>
<line x1="1364.63" y1="599.779" x2="1282.63" y2="665.779" stroke="#212E37" stroke-width="2"/>
</g>
<path d="M105.485 559.558C106.119 555.292 109.285 545.958 116.879 542.749C126.37 538.739 134.154 540.237 144.905 532.992C155.656 525.746 156.324 508.178 167.396 504.348" stroke="#030B58" stroke-width="3"/>
<path d="M111.969 569.18C112.603 564.914 115.77 555.58 123.363 552.372C132.855 548.361 140.639 549.859 151.39 542.614C162.141 535.369 162.808 517.8 173.88 513.97" stroke="#030B58" stroke-width="3"/>
<path d="M118.454 578.802C119.088 574.536 122.254 565.202 129.848 561.994C139.339 557.984 147.123 559.482 157.874 552.236C168.625 544.991 169.293 527.423 180.365 523.592" stroke="#030B58" stroke-width="3"/>
<path d="M1029.6 460.447L1036.23 467.425L1045.87 467.243L1041.27 475.701L1044.42 484.795L1034.95 483.045L1027.26 488.847L1026 479.307L1018.1 473.8L1026.79 469.654L1029.6 460.447Z" fill="#000B6D"/>
<path d="M214.937 205L223.896 196.063C224.288 195.67 224.508 195.138 224.508 194.583C224.508 194.029 224.288 193.496 223.896 193.104C223.503 192.712 222.971 192.491 222.417 192.491C221.862 192.491 221.33 192.712 220.937 193.104L212 202.063L203.062 193.104C202.67 192.712 202.138 192.491 201.583 192.491C201.028 192.491 200.496 192.712 200.104 193.104C199.712 193.496 199.491 194.029 199.491 194.583C199.491 195.138 199.712 195.67 200.104 196.063L209.062 205L200.104 213.938C199.909 214.131 199.754 214.362 199.648 214.615C199.542 214.869 199.488 215.142 199.488 215.417C199.488 215.692 199.542 215.964 199.648 216.218C199.754 216.472 199.909 216.702 200.104 216.896C200.298 217.091 200.528 217.246 200.782 217.352C201.036 217.458 201.308 217.512 201.583 217.512C201.858 217.512 202.131 217.458 202.384 217.352C202.638 217.246 202.869 217.091 203.062 216.896L212 207.938L220.937 216.896C221.131 217.091 221.361 217.246 221.615 217.352C221.869 217.458 222.142 217.512 222.417 217.512C222.692 217.512 222.964 217.458 223.218 217.352C223.472 217.246 223.702 217.091 223.896 216.896C224.091 216.702 224.246 216.472 224.352 216.218C224.457 215.964 224.512 215.692 224.512 215.417C224.512 215.142 224.457 214.869 224.352 214.615C224.246 214.362 224.091 214.131 223.896 213.938L214.937 205Z" fill="#04375C"/>
<path d="M408.898 573.441C409.309 574.06 408.925 574.896 408.187 574.987L388.546 577.403C387.768 577.499 387.188 576.704 387.515 575.993L396.207 557.092C396.534 556.381 397.515 556.304 397.949 556.957L408.898 573.441Z" fill="#4D0867"/>
<path d="M1049.13 214.491L1029.48 216.907C1029.1 216.955 1028.81 216.558 1028.97 216.202L1037.66 197.301C1037.82 196.945 1038.32 196.907 1038.53 197.233L1049.48 213.718C1049.69 214.027 1049.49 214.445 1049.13 214.491Z" stroke="#516E83"/>
<circle cx="792.581" cy="631.581" r="9.08075" stroke="#015738"/>
<path d="M1361.54 171.95L1388.05 198.464C1390 200.417 1390 203.583 1388.05 205.536L1361.54 232.05C1359.58 234.003 1356.42 234.003 1354.46 232.05L1327.95 205.536C1326 203.583 1326 200.417 1327.95 198.464L1354.46 171.95C1356.42 169.997 1359.58 169.997 1361.54 171.95Z" stroke="#004D65" stroke-width="2"/>
<ellipse cx="1127.99" cy="589.961" rx="21.9904" ry="21.9613" fill="#3F0B00"/>
</g>
<defs>
<clipPath id="clip0_1995_32">
<rect width="1440" height="696" fill="white"/>
</clipPath>
</defs>
</svg>
