<svg width="297" height="238" viewBox="0 0 297 238" fill="none" xmlns="http://www.w3.org/2000/svg">
<path d="M291.403 1.46851C291.109 0.693832 290.243 0.303784 289.469 0.597317L276.844 5.3807C276.07 5.67424 275.68 6.54019 275.973 7.31487C276.267 8.08955 277.133 8.4796 277.907 8.18607L289.129 3.93417L293.381 15.1556C293.674 15.9303 294.54 16.3204 295.315 16.0268C296.09 15.7333 296.48 14.8673 296.186 14.0927L291.403 1.46851ZM184.601 236V237.5H185.57L185.969 236.616L184.601 236ZM0 237.5H3.07668V234.5H0L0 237.5ZM9.23004 237.5H15.3834V234.5H9.23004V237.5ZM21.5368 237.5H27.6901V234.5H21.5368V237.5ZM33.8435 237.5H39.9969V234.5H33.8435V237.5ZM46.1502 237.5H52.3036V234.5H46.1502V237.5ZM58.457 237.5H64.6103V234.5H58.457V237.5ZM70.7637 237.5H76.917V234.5H70.7637V237.5ZM83.0704 237.5H89.2238V234.5H83.0704V237.5ZM95.3771 237.5H101.531V234.5H95.3771V237.5ZM107.684 237.5H113.837V234.5H107.684V237.5ZM119.991 237.5H126.144V234.5H119.991V237.5ZM132.297 237.5H138.451V234.5H132.297V237.5ZM144.604 237.5H150.757V234.5H144.604V237.5ZM156.911 237.5H163.064V234.5H156.911V237.5ZM169.218 237.5H175.371V234.5H169.218V237.5ZM181.524 237.5H184.601V234.5H181.524V237.5ZM185.969 236.616L187.223 233.83L184.488 232.598L183.233 235.384L185.969 236.616ZM189.733 228.259L192.242 222.687L189.507 221.455L186.997 227.027L189.733 228.259ZM194.752 217.116L197.261 211.545L194.526 210.313L192.016 215.884L194.752 217.116ZM199.771 205.973L202.28 200.402L199.545 199.17L197.035 204.741L199.771 205.973ZM204.79 194.83L207.299 189.259L204.564 188.027L202.054 193.598L204.79 194.83ZM209.809 183.687L212.318 178.116L209.583 176.884L207.074 182.455L209.809 183.687ZM214.828 172.545L217.337 166.973L214.602 165.741L212.093 171.313L214.828 172.545ZM219.847 161.402L222.356 155.83L219.621 154.598L217.112 160.17L219.847 161.402ZM224.866 150.259L227.375 144.687L224.64 143.455L222.131 149.027L224.866 150.259ZM229.885 139.116L232.394 133.545L229.659 132.313L227.15 137.884L229.885 139.116ZM234.904 127.973L237.413 122.402L234.678 121.17L232.169 126.741L234.904 127.973ZM239.923 116.83L242.432 111.259L239.697 110.027L237.188 115.598L239.923 116.83ZM244.942 105.687L247.451 100.116L244.716 98.884L242.207 104.455L244.942 105.687ZM249.961 94.5446L252.47 88.9731L249.735 87.7411L247.226 93.3125L249.961 94.5446ZM254.98 83.4017L257.489 77.8303L254.754 76.5982L252.245 82.1697L254.98 83.4017ZM259.999 72.2589L262.508 66.6874L259.773 65.4554L257.264 71.0268L259.999 72.2589ZM265.018 61.116L267.527 55.5446L264.792 54.3125L262.283 59.8839L265.018 61.116ZM270.037 49.9731L272.546 44.4017L269.811 43.1697L267.302 48.7411L270.037 49.9731ZM275.056 38.8303L277.565 33.2589L274.83 32.0268L272.321 37.5982L275.056 38.8303ZM280.075 27.6874L282.584 22.116L279.849 20.8839L277.34 26.4554L280.075 27.6874ZM285.094 16.5446L287.603 10.9731L284.868 9.74107L282.359 15.3125L285.094 16.5446ZM290.113 5.40169L291.368 2.61603L288.632 1.38397L287.378 4.16963L290.113 5.40169Z" fill="#C5C5C5"/>
</svg>
